<svg width="265" height="243" viewBox="0 0 265 243" fill="none" xmlns="http://www.w3.org/2000/svg">
<path d="M94.3671 194.233L65.293 194.307L65.2945 194.98L94.3687 194.907L94.3671 194.233Z" fill="#777E74"/>
<path d="M97.6398 192.618C98.2348 192.266 98.9089 192.104 99.6621 192.104C101.238 192.104 102.048 192.93 102.048 194.605V198.155H101.517V197.153L101.482 197.199C101.456 197.216 101.431 197.249 101.393 197.322C101.355 197.335 101.311 197.392 101.273 197.448C101.213 197.511 101.165 197.584 101.083 197.634C101.01 197.707 100.922 197.77 100.849 197.836C100.754 197.902 100.656 197.972 100.542 198.028C100.434 198.088 100.317 198.158 100.197 198.181C100.073 198.214 99.9406 198.247 99.7982 198.31C99.6463 198.327 99.5038 198.327 99.3361 198.327C98.6399 198.327 98.0892 198.131 97.7 197.766C97.3107 197.382 97.1113 196.897 97.1113 196.337C97.1113 195.776 97.3329 195.328 97.7791 194.983C98.2316 194.631 98.8076 194.456 99.5102 194.456H101.479C101.479 193.56 101.162 192.989 100.466 192.734C100.267 192.667 100.039 192.641 99.7728 192.641C99.5102 192.641 99.2886 192.641 99.0608 192.681C98.8424 192.714 98.6747 192.737 98.5133 192.794C98.3772 192.833 98.2759 192.88 98.1747 192.93C98.0924 192.953 98.0196 193.006 97.95 193.056C97.8582 193.105 97.836 193.139 97.8202 193.139L97.6398 192.618ZM101.523 195.663C101.523 195.302 101.523 195.083 101.523 195.006C101.39 195.006 101.235 195.006 101.096 195.006C100.918 195.006 100.76 195.006 100.615 195.006C100.463 195.006 100.279 195.006 100.064 195.006C99.5703 195.006 99.1431 195.023 98.7886 195.083C98.4468 195.156 98.1683 195.298 97.9816 195.517C97.9025 195.613 97.8392 195.716 97.7917 195.839C97.7474 195.982 97.7 196.144 97.7 196.303C97.6746 196.473 97.7 196.642 97.7633 196.808C97.8076 196.977 97.8993 197.139 98.0228 197.282C98.1335 197.418 98.3013 197.521 98.5196 197.62C98.757 197.707 99.0418 197.766 99.3551 197.766C99.5766 197.766 99.7792 197.75 99.9659 197.693C100.143 197.66 100.298 197.607 100.437 197.551C100.57 197.494 100.684 197.415 100.801 197.342C100.925 197.256 101.013 197.166 101.061 197.086C101.149 197 101.213 196.917 101.273 196.814C101.311 196.728 101.358 196.645 101.381 196.559C101.403 196.473 101.45 196.406 101.456 196.343C101.482 196.28 101.482 196.224 101.517 196.151C101.517 196.144 101.523 195.982 101.523 195.663Z" fill="#777E74"/>
<path d="M107.732 192.184H109.713V192.704H107.732V195.534V195.584V195.634C107.732 195.69 107.732 195.803 107.732 195.939C107.716 196.098 107.716 196.184 107.716 196.261C107.716 196.337 107.732 196.43 107.732 196.539C107.738 196.669 107.754 196.788 107.773 196.854C107.799 196.941 107.84 197.007 107.865 197.1C107.922 197.203 107.96 197.286 108.03 197.339C108.387 197.783 108.96 197.843 109.71 197.548L109.748 198.085L109.663 198.092C109.618 198.132 109.571 198.132 109.539 198.158C109.501 198.158 109.457 198.175 109.378 198.181C109.308 198.208 109.248 198.215 109.178 198.215C109.125 198.248 109.042 198.248 108.957 198.248C108.859 198.248 108.773 198.248 108.713 198.248C108.637 198.248 108.552 198.215 108.46 198.191C108.359 198.175 108.283 198.158 108.2 198.095C108.115 198.062 108.026 198.026 107.931 197.949C107.837 197.893 107.767 197.83 107.672 197.75C107.511 197.604 107.39 197.339 107.302 197.05C107.229 196.705 107.181 196.49 107.166 196.337C107.166 196.178 107.166 195.939 107.166 195.634V195.537V192.708H106.355V192.187H107.172V190.279H107.732V192.184Z" fill="#777E74"/>
<path d="M110.752 192.618C111.363 192.266 112.027 192.104 112.777 192.104C114.366 192.104 115.154 192.93 115.154 194.605V198.155H114.61V197.153L114.575 197.199C114.559 197.216 114.546 197.249 114.493 197.322C114.461 197.335 114.42 197.392 114.369 197.448C114.331 197.511 114.262 197.584 114.186 197.634C114.116 197.707 114.034 197.77 113.948 197.836C113.856 197.902 113.765 197.972 113.657 198.028C113.537 198.088 113.41 198.158 113.303 198.181C113.192 198.214 113.046 198.247 112.901 198.31C112.755 198.327 112.594 198.327 112.442 198.327C111.755 198.327 111.204 198.131 110.822 197.766C110.426 197.382 110.227 196.897 110.227 196.337C110.227 195.776 110.442 195.328 110.894 194.983C111.344 194.631 111.907 194.456 112.635 194.456H114.591C114.591 193.56 114.262 192.989 113.578 192.734C113.391 192.667 113.154 192.641 112.885 192.641C112.632 192.641 112.388 192.641 112.173 192.681C111.958 192.714 111.784 192.737 111.638 192.794C111.502 192.833 111.385 192.88 111.293 192.93C111.201 192.953 111.132 193.006 111.049 193.056C110.98 193.105 110.958 193.139 110.939 193.139L110.752 192.618ZM114.638 195.663C114.638 195.302 114.638 195.083 114.638 195.006C114.489 195.006 114.347 195.006 114.182 195.006C114.031 195.006 113.875 195.006 113.73 195.006C113.575 195.006 113.385 195.006 113.157 195.006C112.676 195.006 112.255 195.023 111.904 195.083C111.553 195.156 111.274 195.298 111.078 195.517C111.015 195.613 110.954 195.716 110.891 195.839C110.853 195.982 110.822 196.144 110.803 196.303C110.793 196.473 110.818 196.642 110.86 196.808C110.926 196.977 111.011 197.139 111.116 197.282C111.246 197.418 111.41 197.521 111.638 197.62C111.875 197.707 112.138 197.766 112.47 197.766C112.692 197.766 112.882 197.75 113.062 197.693C113.249 197.66 113.404 197.607 113.537 197.551C113.673 197.494 113.8 197.415 113.91 197.342C114.021 197.256 114.113 197.166 114.182 197.086C114.258 197 114.319 196.917 114.366 196.814C114.417 196.728 114.458 196.645 114.489 196.559C114.527 196.473 114.543 196.406 114.559 196.343C114.575 196.28 114.591 196.224 114.61 196.151C114.626 196.144 114.638 195.982 114.638 195.663Z" fill="#777E74"/>
<path d="M122.271 197.209H122.265C122.255 197.378 122.249 197.601 122.201 197.899C122.176 198.155 122.084 198.393 121.935 198.646C121.799 198.891 121.6 199.133 121.369 199.342C121.132 199.551 120.856 199.727 120.524 199.863C120.192 200.016 119.84 200.072 119.47 200.072C118.73 200.072 118.017 199.863 117.315 199.478V198.755C117.748 199.269 118.448 199.531 119.426 199.531C119.733 199.531 120.014 199.475 120.242 199.395C120.492 199.309 120.682 199.219 120.825 199.107C120.986 199.01 121.122 198.858 121.23 198.682C121.359 198.513 121.435 198.36 121.489 198.241C121.556 198.088 121.597 197.942 121.635 197.766C121.682 197.597 121.698 197.461 121.698 197.415C121.704 197.365 121.704 197.289 121.714 197.199V196.3C121.609 196.463 121.492 196.622 121.369 196.768C121.233 196.911 121.071 197.063 120.897 197.209C120.692 197.352 120.476 197.465 120.217 197.547C119.964 197.634 119.698 197.674 119.423 197.674C119.116 197.674 118.818 197.617 118.495 197.514C118.173 197.378 117.878 197.209 117.581 196.977C117.305 196.761 117.084 196.466 116.941 196.094C116.777 195.72 116.717 195.302 116.717 194.821C116.717 194.353 116.793 193.961 116.979 193.553C117.163 193.135 117.473 192.79 117.891 192.488C118.305 192.183 118.768 192.041 119.261 192.041C119.552 192.041 119.828 192.07 120.087 192.143C120.325 192.23 120.527 192.286 120.685 192.372C120.844 192.462 120.989 192.588 121.157 192.727C121.296 192.873 121.407 192.999 121.464 193.072C121.524 193.142 121.594 193.248 121.67 193.368C121.701 193.407 121.708 193.424 121.717 193.44V192.183H122.274L122.271 197.209ZM119.419 197.153C120.018 197.153 120.543 196.937 121.033 196.512C121.505 196.061 121.746 195.54 121.746 194.91C121.746 194.28 121.508 193.716 121.033 193.258C120.543 192.794 120.018 192.578 119.419 192.578C118.806 192.578 118.283 192.794 117.859 193.235C117.423 193.676 117.207 194.23 117.207 194.854C117.207 195.494 117.423 196.045 117.859 196.486C118.283 196.937 118.806 197.153 119.419 197.153Z" fill="#777E74"/>
<path d="M124.49 195.481V195.537V195.587C124.49 195.62 124.483 195.74 124.474 195.939C124.461 196.151 124.461 196.297 124.474 196.363C124.48 196.413 124.496 196.523 124.509 196.669C124.528 196.811 124.543 196.941 124.588 197.027C124.641 197.13 124.695 197.213 124.787 197.299C125.138 197.75 125.708 197.803 126.461 197.515L126.493 198.025C126.395 198.059 126.325 198.085 126.287 198.092C126.249 198.115 126.205 198.132 126.126 198.158C126.072 198.158 125.99 198.175 125.942 198.175C125.879 198.181 125.793 198.191 125.721 198.191C125.623 198.208 125.559 198.191 125.477 198.181C125.392 198.175 125.3 198.158 125.217 198.158C125.126 198.132 125.04 198.092 124.948 198.062C124.869 198.022 124.79 197.976 124.689 197.903C124.613 197.836 124.512 197.773 124.442 197.694C124.322 197.607 124.233 197.471 124.176 197.335C124.097 197.166 124.053 197.03 124.015 196.878C123.983 196.708 123.967 196.566 123.955 196.403C123.926 196.244 123.917 196.075 123.926 195.972C123.926 195.826 123.926 195.723 123.92 195.587V195.484V189.599H124.493L124.49 195.481Z" fill="#777E74"/>
<path d="M127.73 190.359H128.481V191.344H127.73V190.359ZM128.389 193.298V192.183H127.838V198.155H128.389V193.298Z" fill="#777E74"/>
<path d="M130.603 198.155H130.053V192.183H130.603V193.202C131.059 192.425 131.702 192.041 132.521 192.041C133.297 192.041 133.907 192.263 134.309 192.727C134.721 193.168 134.93 193.809 134.93 194.635V198.155H134.382V194.87C134.382 193.364 133.74 192.601 132.445 192.588C131.572 192.588 130.97 193.099 130.607 194.117L130.603 198.155Z" fill="#777E74"/>
<path d="M137.11 195.404C137.126 195.663 137.18 195.935 137.262 196.174C137.389 196.496 137.563 196.768 137.775 197C137.974 197.246 138.218 197.431 138.518 197.544C138.791 197.67 139.104 197.76 139.433 197.76C139.775 197.76 140.082 197.67 140.373 197.544C140.569 197.458 140.727 197.348 140.879 197.229V197.869C140.778 197.939 140.68 197.989 140.588 198.022C140.218 198.201 139.838 198.304 139.408 198.304C138.987 198.304 138.597 198.201 138.249 198.032C137.895 197.869 137.585 197.654 137.322 197.375C137.063 197.076 136.863 196.758 136.718 196.38C136.569 195.995 136.496 195.613 136.496 195.179V195.162C136.496 194.748 136.572 194.346 136.718 193.971C136.866 193.61 137.063 193.271 137.322 192.983C137.597 192.694 137.911 192.465 138.262 192.286C138.62 192.11 139.028 192.041 139.433 192.041C139.616 192.041 139.794 192.07 140.006 192.133C140.199 192.19 140.405 192.319 140.61 192.465C140.854 192.634 141.06 192.83 141.23 193.076C141.392 193.314 141.547 193.636 141.651 194.044C141.781 194.446 141.838 194.91 141.825 195.404H137.11ZM139.408 192.585C139.078 192.585 138.765 192.654 138.48 192.79C138.183 192.92 137.939 193.112 137.743 193.318C137.534 193.567 137.373 193.839 137.259 194.137C137.177 194.383 137.123 194.622 137.107 194.897H141.256C141.256 194.744 141.183 194.462 141.082 194.094C141.015 193.855 140.901 193.62 140.797 193.437C140.674 193.245 140.566 193.109 140.465 192.996C140.357 192.92 140.218 192.82 140.082 192.767C139.923 192.701 139.822 192.654 139.759 192.631C139.692 192.631 139.582 192.598 139.468 192.588C139.455 192.591 139.423 192.585 139.408 192.585Z" fill="#777E74"/>
<path d="M151.909 197.209H151.893C151.893 197.378 151.858 197.601 151.833 197.899C151.804 198.155 151.725 198.393 151.576 198.646C151.418 198.891 151.244 199.133 151.01 199.342C150.766 199.551 150.484 199.727 150.146 199.863C149.823 200.016 149.469 200.072 149.12 200.072C148.374 200.072 147.658 199.863 146.943 199.478V198.755C147.38 199.269 148.086 199.531 149.063 199.531C149.374 199.531 149.649 199.475 149.87 199.395C150.139 199.309 150.317 199.219 150.469 199.107C150.617 199.01 150.76 198.858 150.874 198.682C151.003 198.513 151.067 198.36 151.13 198.241C151.187 198.088 151.244 197.942 151.285 197.766C151.307 197.597 151.329 197.461 151.342 197.415C151.342 197.365 151.342 197.289 151.342 197.199V196.3C151.26 196.463 151.124 196.622 151.003 196.768C150.874 196.911 150.712 197.063 150.522 197.209C150.323 197.352 150.101 197.465 149.842 197.547C149.592 197.634 149.336 197.674 149.057 197.674C148.75 197.674 148.449 197.617 148.124 197.514C147.807 197.378 147.503 197.209 147.218 196.977C146.937 196.761 146.718 196.466 146.563 196.094C146.418 195.72 146.342 195.302 146.342 194.821C146.342 194.353 146.434 193.961 146.63 193.553C146.804 193.135 147.12 192.79 147.529 192.488C147.949 192.183 148.402 192.041 148.915 192.041C149.19 192.041 149.456 192.07 149.712 192.143C149.965 192.23 150.171 192.286 150.32 192.372C150.491 192.462 150.636 192.588 150.776 192.727C150.94 192.873 151.019 192.999 151.089 193.072C151.155 193.142 151.228 193.248 151.31 193.368C151.333 193.407 151.348 193.424 151.348 193.44V192.183H151.915V197.209H151.909ZM149.032 197.153C149.646 197.153 150.162 196.937 150.674 196.512C151.143 196.061 151.367 195.54 151.367 194.91C151.367 194.28 151.143 193.716 150.674 193.258C150.165 192.794 149.649 192.578 149.032 192.578C148.44 192.578 147.911 192.794 147.484 193.235C147.06 193.676 146.854 194.23 146.854 194.854C146.854 195.494 147.06 196.045 147.484 196.486C147.911 196.937 148.443 197.153 149.032 197.153Z" fill="#777E74"/>
<path d="M156.389 198.307C155.955 198.307 155.569 198.204 155.212 198.035C154.879 197.873 154.56 197.657 154.313 197.378C154.034 197.08 153.835 196.761 153.677 196.383C153.537 195.998 153.48 195.617 153.48 195.182V195.166C153.48 194.751 153.537 194.35 153.677 193.975C153.835 193.613 154.034 193.275 154.313 192.986C154.56 192.697 154.879 192.469 155.218 192.289C155.588 192.114 155.996 192.044 156.424 192.044C156.832 192.044 157.212 192.114 157.579 192.289C157.933 192.469 158.243 192.681 158.487 192.979C158.753 193.252 158.965 193.573 159.114 193.965C159.234 194.31 159.307 194.734 159.307 195.142V195.166C159.307 195.584 159.237 195.982 159.114 196.36C158.965 196.735 158.753 197.063 158.487 197.368C158.231 197.634 157.917 197.873 157.566 198.035C157.196 198.204 156.8 198.307 156.389 198.307ZM156.42 197.763C156.743 197.763 157.05 197.674 157.354 197.548C157.62 197.412 157.87 197.232 158.069 197.004C158.275 196.771 158.455 196.499 158.547 196.177C158.667 195.872 158.743 195.544 158.743 195.182V195.166C158.743 194.821 158.671 194.469 158.547 194.141C158.427 193.842 158.25 193.56 158.05 193.315C157.841 193.099 157.598 192.923 157.303 192.787C157.015 192.658 156.708 192.588 156.389 192.588C156.057 192.588 155.731 192.658 155.452 192.794C155.164 192.923 154.917 193.115 154.712 193.321C154.512 193.57 154.344 193.842 154.227 194.141C154.117 194.452 154.063 194.778 154.063 195.142V195.166C154.063 195.534 154.117 195.856 154.246 196.177C154.37 196.499 154.522 196.771 154.74 197.004C154.939 197.249 155.212 197.435 155.484 197.548C155.769 197.674 156.076 197.763 156.42 197.763Z" fill="#777E74"/>
<path d="M161.457 195.404C161.485 195.663 161.542 195.935 161.64 196.174C161.745 196.496 161.912 196.768 162.15 197C162.321 197.246 162.596 197.431 162.881 197.544C163.156 197.67 163.476 197.76 163.783 197.76C164.137 197.76 164.438 197.67 164.716 197.544C164.925 197.458 165.09 197.348 165.248 197.229V197.869C165.128 197.939 165.036 197.989 164.954 198.022C164.593 198.201 164.201 198.304 163.776 198.304C163.343 198.304 162.963 198.201 162.609 198.032C162.254 197.869 161.935 197.654 161.697 197.375C161.428 197.076 161.229 196.758 161.077 196.38C160.931 195.995 160.855 195.613 160.855 195.179V195.162C160.855 194.748 160.931 194.346 161.077 193.971C161.232 193.61 161.428 193.271 161.697 192.983C161.935 192.694 162.283 192.465 162.634 192.286C162.973 192.11 163.359 192.041 163.783 192.041C163.976 192.041 164.182 192.07 164.346 192.133C164.546 192.19 164.758 192.319 164.982 192.465C165.197 192.634 165.413 192.83 165.58 193.076C165.764 193.314 165.91 193.636 166.03 194.044C166.137 194.446 166.201 194.91 166.201 195.404H161.457ZM163.78 192.585C163.46 192.585 163.134 192.654 162.833 192.79C162.552 192.92 162.314 193.112 162.102 193.318C161.912 193.567 161.732 193.839 161.64 194.137C161.545 194.383 161.485 194.622 161.457 194.897H165.612C165.606 194.744 165.546 194.462 165.46 194.094C165.368 193.855 165.28 193.62 165.172 193.437C165.033 193.245 164.925 193.109 164.83 192.996C164.716 192.92 164.593 192.82 164.438 192.767C164.299 192.701 164.188 192.654 164.118 192.631C164.045 192.631 163.944 192.598 163.83 192.588C163.799 192.591 163.786 192.585 163.78 192.585Z" fill="#777E74"/>
<path d="M170.922 193.202C170.878 193.162 170.792 193.116 170.697 193.076C170.602 193.003 170.444 192.923 170.169 192.827C169.89 192.708 169.656 192.658 169.419 192.605C169.197 192.578 168.919 192.605 168.65 192.681C168.384 192.771 168.162 192.923 167.992 193.169C167.824 193.474 167.805 193.739 167.906 193.972C168.052 194.2 168.232 194.353 168.498 194.449C168.757 194.552 169.055 194.658 169.409 194.778C169.742 194.917 170.077 195.02 170.387 195.162C170.669 195.282 170.922 195.468 171.118 195.716C171.295 195.979 171.368 196.27 171.337 196.635C171.292 197.11 171.131 197.511 170.843 197.76C170.568 198.022 170.245 198.175 169.868 198.241C169.501 198.264 169.115 198.241 168.729 198.201C168.34 198.128 168.011 198.022 167.697 197.886C167.4 197.76 167.188 197.614 167.08 197.461L167.359 196.974C167.409 197.024 167.523 197.093 167.659 197.176C167.795 197.262 168.023 197.375 168.387 197.521C168.745 197.674 169.055 197.747 169.378 197.747C169.856 197.747 170.194 197.617 170.45 197.408C170.663 197.176 170.789 196.871 170.789 196.496C170.789 196.274 170.669 196.071 170.46 195.909C170.27 195.743 170.033 195.617 169.773 195.517C169.511 195.415 169.194 195.325 168.783 195.229C168.242 195.099 167.836 194.854 167.567 194.506C167.283 194.124 167.21 193.729 167.355 193.281C167.466 192.847 167.754 192.525 168.188 192.296C168.574 192.071 169.03 191.991 169.482 192.071C169.738 192.114 170.014 192.183 170.302 192.296C170.568 192.416 170.795 192.525 170.966 192.618L171.201 192.754L170.922 193.202Z" fill="#777E74"/>
<path d="M176.379 193.258C176.445 193.139 176.518 193.003 176.651 192.893C176.746 192.774 176.879 192.638 177.04 192.508C177.214 192.362 177.423 192.253 177.676 192.17C177.907 192.074 178.195 192.044 178.48 192.044C178.86 192.044 179.217 192.114 179.524 192.266C179.825 192.435 180.059 192.634 180.224 192.897C180.395 193.145 180.524 193.424 180.603 193.713C180.686 194.011 180.72 194.31 180.72 194.635V198.155H180.154V194.751C180.154 194.708 180.154 194.661 180.154 194.605C180.154 194.565 180.148 194.452 180.148 194.31C180.103 194.141 180.097 194.011 180.059 193.865C180.024 193.739 179.97 193.587 179.882 193.407C179.8 193.255 179.682 193.112 179.562 192.999C179.451 192.873 179.274 192.77 179.059 192.694C178.847 192.601 178.619 192.575 178.337 192.575C177.477 192.575 176.837 193.046 176.375 194.011V198.155H175.818V189.596H176.375L176.379 193.258Z" fill="#777E74"/>
<path d="M182.912 195.405C182.918 195.663 182.994 195.935 183.073 196.174C183.194 196.496 183.365 196.768 183.564 197C183.773 197.246 184.026 197.431 184.311 197.544C184.596 197.67 184.906 197.76 185.251 197.76C185.567 197.76 185.884 197.67 186.162 197.544C186.349 197.458 186.517 197.349 186.675 197.229V197.869C186.593 197.939 186.476 197.989 186.393 198.022C186.007 198.201 185.618 198.304 185.2 198.304C184.786 198.304 184.409 198.201 184.048 198.032C183.694 197.869 183.39 197.654 183.111 197.375C182.849 197.077 182.649 196.758 182.52 196.38C182.377 195.998 182.295 195.617 182.295 195.182V195.166C182.295 194.751 182.374 194.35 182.52 193.975C182.646 193.613 182.849 193.275 183.111 192.986C183.39 192.697 183.694 192.469 184.064 192.289C184.409 192.114 184.814 192.044 185.251 192.044C185.415 192.044 185.608 192.074 185.798 192.137C185.979 192.193 186.188 192.323 186.415 192.469C186.64 192.638 186.858 192.833 187.02 193.079C187.191 193.318 187.339 193.64 187.476 194.048C187.577 194.449 187.637 194.914 187.637 195.408L182.912 195.405ZM185.2 192.585C184.871 192.585 184.577 192.654 184.286 192.79C183.988 192.92 183.767 193.112 183.539 193.318C183.33 193.567 183.175 193.839 183.073 194.137C182.997 194.383 182.918 194.622 182.912 194.897H187.064C187.032 194.744 187.001 194.462 186.887 194.094C186.82 193.855 186.71 193.62 186.599 193.437C186.476 193.245 186.368 193.109 186.27 192.996C186.146 192.92 186.026 192.82 185.884 192.767C185.754 192.701 185.618 192.654 185.558 192.631C185.475 192.631 185.393 192.598 185.286 192.588C185.251 192.591 185.232 192.585 185.2 192.585Z" fill="#777E74"/>
<path d="M192.144 192.727C192.033 192.727 191.887 192.727 191.764 192.744C191.634 192.754 191.45 192.8 191.254 192.923C191.03 192.999 190.827 193.145 190.643 193.298C190.457 193.474 190.295 193.712 190.099 194.051C189.947 194.389 189.805 194.781 189.723 195.245V198.155H189.172V192.183H189.723V193.298V193.825C190.061 193.145 190.457 192.677 190.887 192.465C191.283 192.233 191.7 192.113 192.144 192.104V192.727Z" fill="#777E74"/>
<path d="M192.287 195.404C192.306 195.663 192.369 195.935 192.464 196.174C192.568 196.496 192.723 196.768 192.948 197C193.173 197.246 193.407 197.431 193.692 197.544C193.97 197.67 194.28 197.76 194.597 197.76C194.951 197.76 195.261 197.67 195.556 197.544C195.739 197.458 195.904 197.348 196.056 197.229V197.869C195.954 197.939 195.856 197.989 195.761 198.022C195.404 198.201 195.018 198.304 194.581 198.304C194.163 198.304 193.768 198.201 193.416 198.032C193.065 197.869 192.755 197.654 192.499 197.375C192.23 197.076 192.043 196.758 191.885 196.38C191.742 195.995 191.676 195.613 191.676 195.179V195.162C191.676 194.748 191.742 194.346 191.885 193.971C192.046 193.61 192.23 193.271 192.505 192.983C192.774 192.694 193.1 192.465 193.432 192.286C193.796 192.11 194.192 192.041 194.597 192.041C194.79 192.041 194.98 192.07 195.192 192.133C195.347 192.19 195.568 192.319 195.812 192.465C196.034 192.634 196.223 192.83 196.417 193.076C196.581 193.314 196.733 193.636 196.828 194.044C196.955 194.446 197.005 194.91 197.005 195.404H192.287ZM194.584 192.585C194.246 192.585 193.945 192.654 193.647 192.79C193.375 192.92 193.125 193.112 192.923 193.318C192.723 193.567 192.571 193.839 192.464 194.137C192.372 194.383 192.306 194.622 192.287 194.897H196.426C196.42 194.744 196.379 194.462 196.261 194.094C196.189 193.855 196.097 193.62 195.967 193.437C195.856 193.245 195.752 193.109 195.641 192.996C195.521 192.92 195.41 192.82 195.261 192.767C195.109 192.701 194.999 192.654 194.923 192.631C194.859 192.631 194.758 192.598 194.679 192.588C194.651 192.591 194.6 192.585 194.584 192.585Z" fill="#777E74"/>
<path d="M78.9878 158.216H83.2221L92.6783 185.495H87.0071L85.2729 179.869H75.1268L73.4653 185.495H67.791L76.418 160.034C76.8706 158.826 77.725 158.216 78.9878 158.216ZM80.1967 163.69L76.5668 175.268H83.8329L80.1967 163.69Z" fill="#5B9E37"/>
<path d="M99.0352 160.837V167.183C99.5891 166.161 100.399 165.355 101.459 164.721C102.365 164.184 103.478 163.928 104.789 163.928C107.159 163.928 109.099 164.957 110.615 167.017C112.128 169.084 112.884 171.761 112.884 175.039C112.884 178.306 112.128 180.977 110.615 183.034C109.859 184.045 108.836 184.772 107.551 185.22C106.263 185.671 104.991 185.893 103.732 185.893C101.307 185.893 99.0637 185.23 96.994 183.913C94.9243 182.586 93.8926 180.051 93.8926 176.299V158.133H96.4623C97.1681 158.133 97.7757 158.398 98.282 158.926C98.7884 159.45 99.0352 160.09 99.0352 160.837ZM107.662 174.786C107.662 172.889 107.289 171.413 106.532 170.348C105.773 169.24 104.738 168.679 103.425 168.679C102.016 168.679 100.925 169.216 100.168 170.268C99.4118 171.383 99.0321 172.889 99.0321 174.786C99.0321 177.016 99.3865 178.625 100.095 179.627C100.849 180.741 101.912 181.292 103.273 181.292C104.687 181.292 105.77 180.741 106.529 179.627C107.289 178.512 107.662 176.903 107.662 174.786Z" fill="#5B9E37"/>
<path d="M113.344 178.512H118.48C118.534 179.577 118.914 180.373 119.619 180.901C120.376 181.431 121.385 181.687 122.648 181.687C123.556 181.687 124.338 181.501 124.996 181.133C125.601 180.758 125.901 180.257 125.901 179.627C125.901 178.675 124.844 177.958 122.721 177.487C121.816 177.324 121.135 177.165 120.683 177.013C118.012 176.323 116.214 175.497 115.312 174.551C114.303 173.599 113.799 172.325 113.799 170.739C113.799 168.732 114.534 167.07 115.993 165.753C117.502 164.536 119.471 163.925 121.892 163.925C124.518 163.925 126.613 164.536 128.17 165.753C129.639 167.07 130.417 168.792 130.519 170.899H127.272C126.306 170.899 125.572 170.457 125.072 169.562C124.873 169.343 124.67 169.13 124.468 168.921C123.86 168.447 123.028 168.208 121.971 168.208C120.961 168.208 120.205 168.371 119.702 168.679C119.249 168.994 119.021 169.472 119.021 170.106C119.021 170.958 120.328 171.672 122.955 172.255C123.256 172.358 123.521 172.441 123.749 172.488C123.974 172.544 124.189 172.567 124.392 172.567C126.965 173.257 128.753 174.057 129.762 174.946C130.721 175.901 131.199 177.169 131.199 178.761C131.199 181.083 130.398 182.878 128.778 184.145C127.268 185.316 124.999 185.89 121.971 185.89C119.097 185.89 116.948 185.28 115.534 184.072C114.075 182.845 113.347 181.083 113.347 178.758L113.344 178.512Z" fill="#5B9E37"/>
<path d="M140.956 185.495C139.295 185.605 137.487 185.572 135.544 185.416C133.608 185.263 132.633 183.963 132.633 181.538V158.219H135.361C136.01 158.219 136.592 158.481 137.098 159.012C137.601 159.54 137.855 160.173 137.855 160.91V164.483H140.956V165.587C140.956 166.38 140.703 167.034 140.2 167.535C139.696 168.039 139.089 168.291 138.383 168.291H137.855V180.031C137.855 180.921 138.358 181.375 139.367 181.375H140.959L140.956 185.495Z" fill="#5B9E37"/>
<path d="M141.412 185.495V175.267C141.412 173.201 141.7 171.469 142.279 170.076C142.862 168.672 143.656 167.548 144.659 166.702C145.624 165.909 146.741 165.325 148.033 164.957C149.311 164.589 150.644 164.403 152.004 164.403C152.109 164.403 152.229 164.403 152.387 164.403C152.533 164.403 152.659 164.403 152.758 164.403V170.029H151.02C149.558 170.029 148.476 170.394 147.767 171.141C147.058 171.88 146.704 173.041 146.704 174.637V185.495H141.412Z" fill="#5B9E37"/>
<path d="M166.147 184.626C165.093 185.207 163.973 185.565 162.786 185.691C161.602 185.827 160.548 185.893 159.646 185.893C157.83 185.893 156.235 185.376 154.877 184.338C153.51 183.312 152.836 181.607 152.836 179.235C152.836 177.016 153.447 175.427 154.681 174.465C155.918 173.519 157.501 172.886 159.409 172.567C159.662 172.567 159.972 172.534 160.324 172.448C160.675 172.368 161.08 172.302 161.526 172.252C163.748 171.93 164.865 171.244 164.865 170.185C164.865 169.392 164.476 168.878 163.688 168.639C162.909 168.407 162.194 168.288 161.526 168.288C160.827 168.288 160.194 168.391 159.643 168.6C159.083 168.819 158.681 169.22 158.431 169.794H153.361C153.561 168.152 154.266 166.805 155.478 165.753C156.836 164.536 158.786 163.925 161.305 163.925C164.128 163.925 166.242 164.423 167.659 165.425C169.122 166.48 169.849 167.966 169.849 169.873V177.092C169.849 179.202 169.489 180.861 168.751 182.045C168.027 183.243 167.159 184.092 166.147 184.626ZM164.941 174.87C164.238 175.234 163.248 175.583 161.988 175.905L160.245 176.303C159.339 176.561 158.684 176.906 158.279 177.331C157.928 177.918 157.748 178.496 157.748 179.076C157.748 179.869 157.975 180.506 158.434 180.977C158.884 181.402 159.542 181.607 160.396 181.607C161.808 181.607 162.916 181.189 163.735 180.34C164.539 179.497 164.941 178.326 164.941 176.853V174.87Z" fill="#5B9E37"/>
<path d="M184.613 178.996H188.398C187.841 181.216 186.777 182.908 185.217 184.075C183.654 185.283 181.688 185.893 179.318 185.893C176.438 185.893 174.194 184.918 172.58 182.961C170.963 181.053 170.156 178.33 170.156 174.787C170.156 171.413 170.944 168.769 172.501 166.851C174.115 164.897 176.359 163.925 179.236 163.925C182.261 163.925 184.609 164.871 186.271 166.778C187.189 167.943 187.841 169.286 188.236 170.826H182.945C182.685 170.298 182.442 169.897 182.188 169.625C181.537 168.895 180.6 168.527 179.391 168.527C178.283 168.527 177.369 168.895 176.666 169.625C175.758 170.69 175.308 172.438 175.308 174.866C175.308 177.301 175.758 179.016 176.666 180.028C177.324 180.868 178.309 181.292 179.619 181.292C180.476 181.292 181.204 181.11 181.812 180.741C181.967 180.682 182.106 180.595 182.23 180.469C182.35 180.323 182.495 180.187 182.644 180.028C182.742 179.866 182.948 179.66 183.249 179.388C183.546 179.133 184.008 178.996 184.613 178.996Z" fill="#5B9E37"/>
<path d="M198.158 185.495C196.49 185.605 194.683 185.572 192.746 185.416C190.803 185.263 189.828 183.963 189.828 181.538V158.219H192.553C193.208 158.219 193.794 158.481 194.297 159.012C194.8 159.54 195.05 160.173 195.05 160.91V164.483H198.154V165.587C198.154 166.38 197.895 167.034 197.395 167.535C196.892 168.039 196.287 168.291 195.585 168.291H195.05V180.031C195.05 180.921 195.556 181.375 196.566 181.375H198.154L198.158 185.495Z" fill="#5B9E37"/>
<path d="M165.894 103.193C165.894 120.835 152.245 135.136 135.415 135.136C118.585 135.136 104.936 120.835 104.936 103.193C104.936 85.5437 118.585 71.2488 135.415 71.2488C152.245 71.2455 165.894 85.5404 165.894 103.193Z" fill="white"/>
<path fill-rule="evenodd" clip-rule="evenodd" d="M139.334 62.4577C123.083 84.9899 130.343 49.5927 120.482 63.2606C108.696 79.7251 124.884 53.7262 134.251 102.725C133.511 97.9246 132.14 87.9955 133.754 77.9934C134.625 72.5926 136.609 67.4605 139.397 62.5904L139.334 62.4577Z" fill="#5B9E37"/>
<path fill-rule="evenodd" clip-rule="evenodd" d="M111.117 71.3252C114.405 99.5899 96.233 69.0594 98.2805 86.1907C100.762 106.789 95.1158 76.0526 133.944 103.657H134.001C130.279 100.857 122.775 94.8592 117.316 86.5224C114.405 82.1268 112.417 76.9217 111.177 71.3252H111.117Z" fill="#5B9E37"/>
<path fill-rule="evenodd" clip-rule="evenodd" d="M96.9163 99.0592C117.876 116.526 84.9474 108.72 97.66 119.319C112.98 131.988 88.7925 114.591 134.371 104.523C129.905 105.319 120.664 106.792 111.366 105.057C106.338 104.122 101.565 101.988 97.0397 98.9895L96.9163 99.0592Z" fill="#5B9E37"/>
<path fill-rule="evenodd" clip-rule="evenodd" d="M105.163 129.39C131.456 125.857 103.052 145.387 118.996 143.191C138.152 140.521 109.562 146.591 135.241 104.855V104.785C132.633 108.789 127.054 116.854 119.3 122.719C115.208 125.854 110.372 127.984 105.16 129.327V129.39H105.163Z" fill="#5B9E37"/>
<path fill-rule="evenodd" clip-rule="evenodd" d="M130.961 144.654C147.208 122.119 139.955 157.516 149.81 143.855C161.598 127.453 145.404 153.382 136.049 104.39C136.796 109.19 138.154 119.12 136.549 129.128C135.67 134.519 133.695 139.648 130.9 144.521L130.961 144.654Z" fill="#5B9E37"/>
<path fill-rule="evenodd" clip-rule="evenodd" d="M159.183 135.783C155.895 107.522 174.066 138.046 172.019 120.924C169.538 100.323 175.184 131.046 136.359 103.455H136.299C140.017 106.255 147.518 112.252 152.977 120.579C155.895 124.982 157.876 130.18 159.113 135.783H159.183Z" fill="#5B9E37"/>
<path fill-rule="evenodd" clip-rule="evenodd" d="M173.385 108.056C152.422 90.5895 185.351 98.3889 172.638 87.7896C157.378 75.1236 181.506 92.5203 135.918 102.585C140.387 101.783 149.624 100.32 158.932 102.055C163.954 102.984 168.733 105.12 173.258 108.119L173.385 108.056Z" fill="#5B9E37"/>
<path fill-rule="evenodd" clip-rule="evenodd" d="M165.136 77.7245C138.84 81.2543 167.237 61.7244 151.303 63.9206C132.138 66.5911 160.731 60.5235 135.059 102.257V102.32C137.66 98.3192 143.239 90.2512 150.996 84.3893C155.088 81.2509 159.927 79.1212 165.139 77.7909L165.136 77.7245Z" fill="#5B9E37"/>
<path opacity="0.49" d="M115.256 119.943C115.266 127.729 108.436 133.733 100.05 133.259C91.6286 132.824 84.8277 126.063 84.834 118.297C84.8277 110.398 91.6318 104.38 100.044 104.865C108.459 105.316 115.256 112.074 115.256 119.943Z" fill="url(#paint0_radial_268_1133)"/>
<path opacity="0.49" d="M116.484 89.4618C116.484 97.2346 109.661 103.249 101.274 102.771C92.853 102.35 86.0488 95.5792 86.0488 87.813C86.0425 79.9075 92.853 73.8963 101.265 74.3707C109.673 74.8319 116.484 81.5862 116.484 89.4618Z" fill="url(#paint1_radial_268_1133)"/>
<path opacity="0.49" d="M136.09 67.8949C136.099 75.6644 129.276 81.6823 120.887 81.2079C112.462 80.7666 105.661 74.0123 105.674 66.2395C105.664 58.344 112.475 52.3294 120.88 52.8038C129.295 53.255 136.09 60.016 136.09 67.8949Z" fill="url(#paint2_radial_268_1133)"/>
<path opacity="0.49" d="M163.144 68.2433C163.154 76.0128 156.334 82.0306 147.938 81.5562C139.52 81.1217 132.716 74.3607 132.719 66.5946C132.716 58.6891 139.52 52.6778 147.928 53.1522C156.34 53.6134 163.144 60.3677 163.144 68.2433Z" fill="url(#paint3_radial_268_1133)"/>
<path opacity="0.49" d="M184.381 88.0751C184.387 95.8479 177.561 101.862 169.174 101.385C160.75 100.957 153.949 94.1958 153.955 86.4362C153.946 78.5308 160.747 72.5096 169.158 72.984C177.586 73.4385 184.381 80.1994 184.381 88.0751Z" fill="url(#paint4_radial_268_1133)"/>
<path opacity="0.49" d="M184.381 119.943C184.387 127.729 177.561 133.733 169.174 133.269C160.75 132.824 153.949 126.07 153.955 118.297C153.946 110.398 160.747 104.38 169.158 104.865C177.586 105.323 184.381 112.08 184.381 119.943Z" fill="url(#paint5_radial_268_1133)"/>
<path opacity="0.49" d="M163.144 141.874C163.154 149.657 156.334 155.665 147.938 155.194C139.52 154.762 132.716 147.998 132.719 140.232C132.716 132.33 139.52 126.322 147.928 126.793C156.34 127.251 163.144 134.022 163.144 141.874Z" fill="url(#paint6_radial_268_1133)"/>
<path opacity="0.49" d="M135.114 140.866C135.114 148.658 128.291 154.673 119.908 154.202C111.48 153.761 104.676 147 104.686 139.233C104.676 131.331 111.487 125.317 119.892 125.798C128.307 126.232 135.114 133.01 135.114 140.866Z" fill="url(#paint7_radial_268_1133)"/>
<path fill-rule="evenodd" clip-rule="evenodd" d="M130.479 56.974C148.879 82.4752 140.663 42.4037 151.819 57.873C165.161 76.5171 146.831 47.0813 136.242 102.556C137.084 97.1218 138.619 85.8789 136.805 74.5565C135.808 68.4391 133.571 62.6269 130.406 57.1166L130.479 56.974Z" fill="#64B93E"/>
<path fill-rule="evenodd" clip-rule="evenodd" d="M162.433 67.0059C158.705 99.0126 179.282 64.4415 176.962 83.8353C174.152 107.164 180.545 72.3602 136.59 103.617H136.523C140.729 100.446 149.227 93.6483 155.404 84.2068C158.705 79.2373 160.949 73.3422 162.347 67.0059H162.433Z" fill="#64B93E"/>
<path fill-rule="evenodd" clip-rule="evenodd" d="M178.509 98.4055C154.777 118.178 192.057 109.333 177.667 121.349C160.381 135.694 187.702 115.995 136.086 104.596C141.149 105.502 151.606 107.164 162.147 105.203C167.834 104.141 173.243 101.733 178.363 98.3259L178.509 98.4055Z" fill="#64B93E"/>
<path fill-rule="evenodd" clip-rule="evenodd" d="M169.176 132.748C139.402 128.74 171.552 150.858 153.514 148.356C131.81 145.344 164.188 152.218 135.117 104.964V104.885C138.067 109.416 144.38 118.552 153.162 125.194C157.795 128.737 163.274 131.159 169.176 132.665V132.748Z" fill="#64B93E"/>
<path fill-rule="evenodd" clip-rule="evenodd" d="M139.957 150.032C121.561 124.517 129.779 164.595 118.614 149.129C105.266 130.558 123.602 159.914 134.201 104.443C133.359 109.881 131.808 121.12 133.634 132.446C134.621 138.56 136.868 144.362 140.024 149.882L139.957 150.032Z" fill="#64B93E"/>
<path fill-rule="evenodd" clip-rule="evenodd" d="M108.013 139.983C111.728 107.99 91.1575 142.541 93.4803 123.164C96.2906 99.832 89.8947 134.632 133.856 103.385H133.922C129.704 106.563 121.21 113.351 115.032 122.766C111.728 127.755 109.481 133.647 108.082 139.983H108.013Z" fill="#64B93E"/>
<path fill-rule="evenodd" clip-rule="evenodd" d="M91.9285 108.59C115.664 88.818 78.3804 97.6458 92.7766 85.6465C110.119 71.2986 82.7319 91.0042 134.339 102.4C129.282 101.497 118.819 99.832 108.293 101.799C102.6 102.857 97.1946 105.269 92.0741 108.67L91.9285 108.59Z" fill="#64B93E"/>
<path fill-rule="evenodd" clip-rule="evenodd" d="M101.268 74.2512C131.044 78.2421 98.8814 56.1346 116.933 58.6227C138.621 61.6415 106.252 54.7777 135.326 102.035V102.104C132.37 97.5729 126.054 88.4366 117.278 81.8017C112.645 78.2388 107.17 75.8303 101.271 74.3242L101.268 74.2512Z" fill="#64B93E"/>
<path fill-rule="evenodd" clip-rule="evenodd" d="M101.268 74.2512C131.044 78.2421 98.8814 56.1346 116.933 58.6227C138.621 61.6415 106.252 54.7777 135.326 102.035V102.104C132.37 97.5729 126.054 88.4366 117.278 81.8017C112.645 78.2388 107.17 75.8303 101.271 74.3242L101.268 74.2512Z" fill="url(#paint8_linear_268_1133)"/>
<path fill-rule="evenodd" clip-rule="evenodd" d="M130.477 56.974C148.877 82.4752 140.661 42.4037 151.817 57.873C165.159 76.5171 146.829 47.0813 136.24 102.556C137.082 97.1218 138.617 85.8789 136.803 74.5565C135.806 68.4391 133.569 62.6269 130.404 57.1166L130.477 56.974Z" fill="url(#paint9_linear_268_1133)"/>
<path fill-rule="evenodd" clip-rule="evenodd" d="M162.431 67.0059C158.703 99.0126 179.28 64.4415 176.96 83.8353C174.15 107.164 180.543 72.3602 136.588 103.617H136.521C140.727 100.446 149.225 93.6483 155.402 84.2068C158.703 79.2373 160.947 73.3422 162.346 67.0059H162.431Z" fill="url(#paint10_linear_268_1133)"/>
<path fill-rule="evenodd" clip-rule="evenodd" d="M178.509 98.4055C154.777 118.178 192.057 109.333 177.667 121.349C160.381 135.694 187.702 115.995 136.086 104.596C141.149 105.502 151.606 107.164 162.147 105.203C167.834 104.141 173.243 101.733 178.363 98.3259L178.509 98.4055Z" fill="url(#paint11_linear_268_1133)"/>
<path fill-rule="evenodd" clip-rule="evenodd" d="M169.176 132.748C139.402 128.74 171.552 150.858 153.514 148.356C131.81 145.344 164.188 152.218 135.117 104.964V104.885C138.067 109.416 144.38 118.552 153.162 125.194C157.795 128.737 163.274 131.159 169.176 132.665V132.748Z" fill="url(#paint12_linear_268_1133)"/>
<path fill-rule="evenodd" clip-rule="evenodd" d="M139.955 150.032C121.559 124.517 129.777 164.595 118.612 149.129C105.264 130.558 123.6 159.914 134.199 104.443C133.357 109.881 131.806 121.12 133.632 132.446C134.619 138.56 136.866 144.362 140.022 149.882L139.955 150.032Z" fill="url(#paint13_linear_268_1133)"/>
<path fill-rule="evenodd" clip-rule="evenodd" d="M108.011 139.983C111.726 107.99 91.1555 142.541 93.4784 123.164C96.2887 99.832 89.8928 134.632 133.854 103.385H133.92C129.702 106.563 121.208 113.351 115.03 122.766C111.726 127.755 109.479 133.647 108.08 139.983H108.011Z" fill="url(#paint14_linear_268_1133)"/>
<path fill-rule="evenodd" clip-rule="evenodd" d="M91.9285 108.59C115.664 88.818 78.3804 97.6458 92.7766 85.6465C110.119 71.2986 82.7319 91.0042 134.339 102.4C129.282 101.497 118.819 99.832 108.293 101.799C102.6 102.857 97.1946 105.269 92.0741 108.67L91.9285 108.59Z" fill="url(#paint15_linear_268_1133)"/>
<defs>
<radialGradient id="paint0_radial_268_1133" cx="0" cy="0" r="1" gradientTransform="matrix(14.1814 0.825085 -0.00123952 14.042 99.5368 119.374)" gradientUnits="userSpaceOnUse">
<stop offset="0.2651" stop-color="#272727"/>
<stop offset="0.2723" stop-color="#2D2D2D"/>
<stop offset="0.3419" stop-color="#5D5D5D"/>
<stop offset="0.4151" stop-color="#898989"/>
<stop offset="0.4909" stop-color="#ADADAD"/>
<stop offset="0.5698" stop-color="#CBCBCB"/>
<stop offset="0.6529" stop-color="#E2E2E2"/>
<stop offset="0.7421" stop-color="#F2F2F2"/>
<stop offset="0.8416" stop-color="#FCFCFC"/>
<stop offset="0.9726" stop-color="white"/>
</radialGradient>
<radialGradient id="paint1_radial_268_1133" cx="0" cy="0" r="1" gradientTransform="matrix(14.1853 0.825316 -0.00123987 14.046 100.761 88.882)" gradientUnits="userSpaceOnUse">
<stop offset="0.2651" stop-color="#272727"/>
<stop offset="0.2723" stop-color="#2D2D2D"/>
<stop offset="0.3419" stop-color="#5D5D5D"/>
<stop offset="0.4151" stop-color="#898989"/>
<stop offset="0.4909" stop-color="#ADADAD"/>
<stop offset="0.5698" stop-color="#CBCBCB"/>
<stop offset="0.6529" stop-color="#E2E2E2"/>
<stop offset="0.7421" stop-color="#F2F2F2"/>
<stop offset="0.8416" stop-color="#FCFCFC"/>
<stop offset="0.9726" stop-color="white"/>
</radialGradient>
<radialGradient id="paint2_radial_268_1133" cx="0" cy="0" r="1" gradientTransform="matrix(14.1821 0.825127 -0.00123958 14.0428 120.373 67.3154)" gradientUnits="userSpaceOnUse">
<stop offset="0.2651" stop-color="#272727"/>
<stop offset="0.2723" stop-color="#2D2D2D"/>
<stop offset="0.3419" stop-color="#5D5D5D"/>
<stop offset="0.4151" stop-color="#898989"/>
<stop offset="0.4909" stop-color="#ADADAD"/>
<stop offset="0.5698" stop-color="#CBCBCB"/>
<stop offset="0.6529" stop-color="#E2E2E2"/>
<stop offset="0.7421" stop-color="#F2F2F2"/>
<stop offset="0.8416" stop-color="#FCFCFC"/>
<stop offset="0.9726" stop-color="white"/>
</radialGradient>
<radialGradient id="paint3_radial_268_1133" cx="0" cy="0" r="1" gradientTransform="matrix(14.1843 0.825253 -0.00123977 14.0449 147.423 67.6635)" gradientUnits="userSpaceOnUse">
<stop offset="0.2651" stop-color="#272727"/>
<stop offset="0.2723" stop-color="#2D2D2D"/>
<stop offset="0.3419" stop-color="#5D5D5D"/>
<stop offset="0.4151" stop-color="#898989"/>
<stop offset="0.4909" stop-color="#ADADAD"/>
<stop offset="0.5698" stop-color="#CBCBCB"/>
<stop offset="0.6529" stop-color="#E2E2E2"/>
<stop offset="0.7421" stop-color="#F2F2F2"/>
<stop offset="0.8416" stop-color="#FCFCFC"/>
<stop offset="0.9726" stop-color="white"/>
</radialGradient>
<radialGradient id="paint4_radial_268_1133" cx="0" cy="0" r="1" gradientTransform="matrix(14.1832 0.825191 -0.00123968 14.0438 168.662 87.4956)" gradientUnits="userSpaceOnUse">
<stop offset="0.2651" stop-color="#272727"/>
<stop offset="0.2723" stop-color="#2D2D2D"/>
<stop offset="0.3419" stop-color="#5D5D5D"/>
<stop offset="0.4151" stop-color="#898989"/>
<stop offset="0.4909" stop-color="#ADADAD"/>
<stop offset="0.5698" stop-color="#CBCBCB"/>
<stop offset="0.6529" stop-color="#E2E2E2"/>
<stop offset="0.7421" stop-color="#F2F2F2"/>
<stop offset="0.8416" stop-color="#FCFCFC"/>
<stop offset="0.9726" stop-color="white"/>
</radialGradient>
<radialGradient id="paint5_radial_268_1133" cx="0" cy="0" r="1" gradientTransform="matrix(14.1835 0.825211 -0.00123971 14.0442 168.663 119.379)" gradientUnits="userSpaceOnUse">
<stop offset="0.2651" stop-color="#272727"/>
<stop offset="0.2723" stop-color="#2D2D2D"/>
<stop offset="0.3419" stop-color="#5D5D5D"/>
<stop offset="0.4151" stop-color="#898989"/>
<stop offset="0.4909" stop-color="#ADADAD"/>
<stop offset="0.5698" stop-color="#CBCBCB"/>
<stop offset="0.6529" stop-color="#E2E2E2"/>
<stop offset="0.7421" stop-color="#F2F2F2"/>
<stop offset="0.8416" stop-color="#FCFCFC"/>
<stop offset="0.9726" stop-color="white"/>
</radialGradient>
<radialGradient id="paint6_radial_268_1133" cx="0" cy="0" r="1" gradientTransform="matrix(14.1832 0.82519 -0.00123968 14.0438 147.423 141.304)" gradientUnits="userSpaceOnUse">
<stop offset="0.2651" stop-color="#272727"/>
<stop offset="0.2723" stop-color="#2D2D2D"/>
<stop offset="0.3419" stop-color="#5D5D5D"/>
<stop offset="0.4151" stop-color="#898989"/>
<stop offset="0.4909" stop-color="#ADADAD"/>
<stop offset="0.5698" stop-color="#CBCBCB"/>
<stop offset="0.6529" stop-color="#E2E2E2"/>
<stop offset="0.7421" stop-color="#F2F2F2"/>
<stop offset="0.8416" stop-color="#FCFCFC"/>
<stop offset="0.9726" stop-color="white"/>
</radialGradient>
<radialGradient id="paint7_radial_268_1133" cx="0" cy="0" r="1" gradientTransform="matrix(14.1853 0.825317 -0.00123987 14.046 119.392 140.307)" gradientUnits="userSpaceOnUse">
<stop offset="0.2651" stop-color="#272727"/>
<stop offset="0.2723" stop-color="#2D2D2D"/>
<stop offset="0.3419" stop-color="#5D5D5D"/>
<stop offset="0.4151" stop-color="#898989"/>
<stop offset="0.4909" stop-color="#ADADAD"/>
<stop offset="0.5698" stop-color="#CBCBCB"/>
<stop offset="0.6529" stop-color="#E2E2E2"/>
<stop offset="0.7421" stop-color="#F2F2F2"/>
<stop offset="0.8416" stop-color="#FCFCFC"/>
<stop offset="0.9726" stop-color="white"/>
</radialGradient>
<linearGradient id="paint8_linear_268_1133" x1="123.93" y1="54.717" x2="122.197" y2="64.0871" gradientUnits="userSpaceOnUse">
<stop stop-color="white"/>
<stop offset="0.8568"/>
</linearGradient>
<linearGradient id="paint9_linear_268_1133" x1="159.423" y1="61.835" x2="152.917" y2="65.9078" gradientUnits="userSpaceOnUse">
<stop stop-color="white"/>
<stop offset="0.8568"/>
</linearGradient>
<linearGradient id="paint10_linear_268_1133" x1="179.114" y1="92.9878" x2="170.664" y2="90.9964" gradientUnits="userSpaceOnUse">
<stop stop-color="white"/>
<stop offset="0.8568"/>
</linearGradient>
<linearGradient id="paint11_linear_268_1133" x1="177.069" y1="126.47" x2="171.271" y2="119.805" gradientUnits="userSpaceOnUse">
<stop stop-color="white"/>
<stop offset="0.8568"/>
</linearGradient>
<linearGradient id="paint12_linear_268_1133" x1="151.431" y1="152.131" x2="151.648" y2="142.905" gradientUnits="userSpaceOnUse">
<stop stop-color="white"/>
<stop offset="0.8568"/>
</linearGradient>
<linearGradient id="paint13_linear_268_1133" x1="117.664" y1="152.012" x2="122.472" y2="146.429" gradientUnits="userSpaceOnUse">
<stop stop-color="white"/>
<stop offset="0.8568"/>
</linearGradient>
<linearGradient id="paint14_linear_268_1133" x1="90.0241" y1="114.476" x2="99.4061" y2="116.465" gradientUnits="userSpaceOnUse">
<stop stop-color="white"/>
<stop offset="0.8568"/>
</linearGradient>
<linearGradient id="paint15_linear_268_1133" x1="88.4654" y1="84.6407" x2="94.8223" y2="89.5313" gradientUnits="userSpaceOnUse">
<stop stop-color="white"/>
<stop offset="0.8568"/>
</linearGradient>
</defs>
</svg>
